<svg width="23" height="23" viewBox="0 0 23 23" fill="none" xmlns="http://www.w3.org/2000/svg">
<path fill-rule="evenodd" clip-rule="evenodd" d="M18.7374 5.82164e-09C19.6933 -5.32413e-05 20.613 0.365161 21.3085 1.02092C22.0039 1.67667 22.4225 2.5734 22.4786 3.52763L22.4849 3.74748V21.2357C22.4848 21.4437 22.4328 21.6483 22.3336 21.8311C22.2344 22.0139 22.0912 22.169 21.9169 22.2824C21.7426 22.3958 21.5427 22.4639 21.3354 22.4805C21.1281 22.4971 20.9199 22.4617 20.7298 22.3774L20.5799 22.3L17.1759 20.2039L13.7707 22.3C13.5963 22.4071 13.3982 22.4698 13.1939 22.4824C12.9896 22.4951 12.7853 22.4573 12.599 22.3724L12.4616 22.3L9.05641 20.2039L5.6512 22.3C5.47273 22.4098 5.26949 22.473 5.0602 22.4837C4.85091 22.4944 4.64229 22.4523 4.45355 22.3612C4.26481 22.2702 4.10202 22.1331 3.98016 21.9626C3.8583 21.7921 3.78129 21.5937 3.75622 21.3856L3.74748 21.2357V13.7408H1.24916C0.943199 13.7407 0.647893 13.6284 0.419253 13.4251C0.190613 13.2218 0.0445415 12.9416 0.00874411 12.6377L3.70762e-08 12.4916V3.1229C-0.000122063 2.33003 0.301338 1.56681 0.843232 0.988029C1.38513 0.40925 2.12688 0.0582578 2.91804 0.00624594L3.1229 5.82164e-09H18.7374ZM14.9899 11.2424H9.99327C9.66198 11.2424 9.34425 11.374 9.10999 11.6083C8.87572 11.8426 8.74412 12.1603 8.74412 12.4916C8.74412 12.8229 8.87572 13.1406 9.10999 13.3749C9.34425 13.6091 9.66198 13.7408 9.99327 13.7408H14.9899C15.3212 13.7408 15.6389 13.6091 15.8732 13.3749C16.1075 13.1406 16.2391 12.8229 16.2391 12.4916C16.2391 12.1603 16.1075 11.8426 15.8732 11.6083C15.6389 11.374 15.3212 11.2424 14.9899 11.2424ZM3.1229 2.49832C2.95725 2.49832 2.79839 2.56412 2.68125 2.68125C2.56412 2.79839 2.49832 2.95725 2.49832 3.1229V11.2424H3.74748V3.1229C3.74748 2.95725 3.68167 2.79839 3.56454 2.68125C3.44741 2.56412 3.28855 2.49832 3.1229 2.49832ZM16.2391 6.2458H9.99327C9.67489 6.24615 9.36865 6.36806 9.13714 6.58663C8.90563 6.80519 8.76631 7.10391 8.74765 7.42175C8.72899 7.73959 8.8324 8.05255 9.03675 8.29671C9.2411 8.54086 9.53097 8.69777 9.84712 8.73537L9.99327 8.74411H16.2391C16.5575 8.74376 16.8637 8.62185 17.0952 8.40328C17.3267 8.18472 17.466 7.886 17.4847 7.56816C17.5034 7.25032 17.3999 6.93736 17.1956 6.6932C16.9912 6.44905 16.7014 6.29214 16.3852 6.25454L16.2391 6.2458Z" fill="#999999"/>
</svg>
