<svg width="193" height="14" viewBox="0 0 193 14" fill="none" xmlns="http://www.w3.org/2000/svg">
<path d="M4.97159 6.43111V6.56037C4.96828 7.15696 4.91027 7.63423 4.79759 7.99219C4.68821 8.34683 4.53078 8.63187 4.32528 8.8473C4.11979 9.06274 3.86955 9.26326 3.57457 9.44886C3.37571 9.57481 3.19508 9.71402 3.03267 9.86648C2.87027 10.0156 2.74266 10.1847 2.64986 10.3736C2.55706 10.5592 2.51065 10.768 2.51065 11C2.51065 11.2618 2.57197 11.4889 2.6946 11.6811C2.81723 11.8767 2.9813 12.0258 3.18679 12.1286C3.3956 12.2346 3.6276 12.2876 3.88281 12.2876C4.11813 12.2876 4.3402 12.2363 4.54901 12.1335C4.76113 12.0341 4.93679 11.8816 5.07599 11.6761C5.2152 11.474 5.29143 11.2188 5.30469 10.9105H7.07457C7.058 11.5402 6.90388 12.0656 6.61222 12.4865C6.32386 12.9107 5.93939 13.2289 5.45881 13.4411C4.98153 13.6532 4.45289 13.7592 3.87287 13.7592C3.23982 13.7592 2.68134 13.6482 2.19744 13.4261C1.71686 13.2041 1.34067 12.8875 1.06889 12.4766C0.800426 12.0689 0.666193 11.5866 0.666193 11.0298C0.666193 10.6454 0.725852 10.3056 0.84517 10.0107C0.967803 9.71236 1.14015 9.44721 1.36222 9.2152C1.58428 8.98319 1.84777 8.77604 2.1527 8.59375C2.42448 8.42803 2.64489 8.25568 2.81392 8.0767C2.98295 7.89773 3.10724 7.68892 3.18679 7.45028C3.26965 7.20833 3.31274 6.91169 3.31605 6.56037V6.43111H4.97159ZM4.10653 3.32883C4.40483 3.32883 4.6617 3.43655 4.87713 3.65199C5.09257 3.86411 5.20028 4.12098 5.20028 4.42259C5.20028 4.72088 5.09257 4.97609 4.87713 5.18821C4.6617 5.40033 4.40483 5.50639 4.10653 5.50639C3.81155 5.50639 3.55469 5.40033 3.33594 5.18821C3.1205 4.97609 3.01278 4.72088 3.01278 4.42259C3.01278 4.22041 3.0625 4.03646 3.16193 3.87074C3.26468 3.70502 3.39891 3.5741 3.56463 3.47798C3.73035 3.37855 3.91098 3.32883 4.10653 3.32883ZM18.4175 5.90909C18.4175 7.00616 18.212 7.94579 17.801 8.72798C17.3934 9.50687 16.8365 10.1035 16.1306 10.5178C15.4279 10.9321 14.6308 11.1392 13.7392 11.1392C12.8477 11.1392 12.0489 10.9321 11.3429 10.5178C10.6403 10.1001 10.0835 9.50189 9.67248 8.72301C9.26481 7.94081 9.06097 7.00284 9.06097 5.90909C9.06097 4.81203 9.26481 3.87405 9.67248 3.09517C10.0835 2.31297 10.6403 1.71473 11.3429 1.30043C12.0489 0.886126 12.8477 0.678977 13.7392 0.678977C14.6308 0.678977 15.4279 0.886126 16.1306 1.30043C16.8365 1.71473 17.3934 2.31297 17.801 3.09517C18.212 3.87405 18.4175 4.81203 18.4175 5.90909ZM16.5631 5.90909C16.5631 5.13684 16.4421 4.48556 16.2002 3.95526C15.9615 3.42164 15.6301 3.01894 15.2059 2.74716C14.7816 2.47206 14.2927 2.33452 13.7392 2.33452C13.1857 2.33452 12.6969 2.47206 12.2726 2.74716C11.8484 3.01894 11.5153 3.42164 11.2733 3.95526C11.0347 4.48556 10.9154 5.13684 10.9154 5.90909C10.9154 6.68134 11.0347 7.33428 11.2733 7.8679C11.5153 8.3982 11.8484 8.8009 12.2726 9.07599C12.6969 9.34777 13.1857 9.48366 13.7392 9.48366C14.2927 9.48366 14.7816 9.34777 15.2059 9.07599C15.6301 8.8009 15.9615 8.3982 16.2002 7.8679C16.4421 7.33428 16.5631 6.68134 16.5631 5.90909ZM22.5815 0.818182V11H20.7817V0.818182H22.5815ZM31.9532 3.36364L29.2337 11H27.2451L24.5256 3.36364H26.4446L28.1996 9.03622H28.2792L30.0391 3.36364H31.9532ZM33.8985 11V3.36364H35.6983V11H33.8985ZM34.8034 2.27983C34.5183 2.27983 34.2731 2.18537 34.0676 1.99645C33.8621 1.80421 33.7593 1.57386 33.7593 1.3054C33.7593 1.03362 33.8621 0.803267 34.0676 0.614346C34.2731 0.422111 34.5183 0.325994 34.8034 0.325994C35.0917 0.325994 35.337 0.422111 35.5392 0.614346C35.7447 0.803267 35.8474 1.03362 35.8474 1.3054C35.8474 1.57386 35.7447 1.80421 35.5392 1.99645C35.337 2.18537 35.0917 2.27983 34.8034 2.27983ZM41.0827 11.1342C40.4828 11.1342 39.9459 10.9801 39.4719 10.6719C38.998 10.3636 38.6235 9.91619 38.3484 9.32955C38.0733 8.7429 37.9357 8.0303 37.9357 7.19176C37.9357 6.34328 38.0749 5.62737 38.3533 5.04403C38.6351 4.45739 39.0146 4.01491 39.4918 3.71662C39.9691 3.41501 40.5011 3.2642 41.0877 3.2642C41.5352 3.2642 41.9031 3.34044 42.1914 3.4929C42.4798 3.64205 42.7085 3.82268 42.8775 4.0348C43.0465 4.24361 43.1774 4.44081 43.2702 4.62642H43.3448V0.818182H45.1495V11H43.3796V9.79688H43.2702C43.1774 9.98248 43.0432 10.1797 42.8675 10.3885C42.6919 10.594 42.4599 10.7696 42.1715 10.9155C41.8832 11.0613 41.5202 11.1342 41.0827 11.1342ZM41.5849 9.65767C41.966 9.65767 42.2908 9.55492 42.5593 9.34943C42.8278 9.14062 43.0316 8.85062 43.1708 8.4794C43.31 8.10819 43.3796 7.67566 43.3796 7.18182C43.3796 6.68797 43.31 6.25876 43.1708 5.89418C43.0349 5.52959 42.8327 5.24621 42.5643 5.04403C42.2991 4.84186 41.9727 4.74077 41.5849 4.74077C41.1838 4.74077 40.8491 4.84517 40.5806 5.05398C40.3121 5.26278 40.11 5.55114 39.9741 5.91903C39.8382 6.28693 39.7702 6.70786 39.7702 7.18182C39.7702 7.65909 39.8382 8.08499 39.9741 8.45952C40.1133 8.83073 40.3171 9.12405 40.5856 9.33949C40.8574 9.55161 41.1905 9.65767 41.5849 9.65767ZM49.9647 11.1541C49.4808 11.1541 49.045 11.0679 48.6572 10.8956C48.2727 10.7199 47.9678 10.4614 47.7424 10.12C47.5204 9.77865 47.4093 9.35772 47.4093 8.85724C47.4093 8.42637 47.4889 8.07008 47.648 7.78835C47.8071 7.50663 48.0242 7.28125 48.2993 7.11222C48.5743 6.94318 48.8842 6.81558 49.2289 6.7294C49.577 6.63991 49.9366 6.57528 50.3078 6.53551C50.7552 6.48911 51.1181 6.44768 51.3966 6.41122C51.675 6.37145 51.8771 6.31179 52.0031 6.23224C52.1324 6.14938 52.197 6.02178 52.197 5.84943V5.8196C52.197 5.44508 52.086 5.15507 51.8639 4.94957C51.6418 4.74408 51.322 4.64134 50.9044 4.64134C50.4636 4.64134 50.1139 4.73745 49.8554 4.92969C49.6002 5.12192 49.4278 5.34896 49.3383 5.6108L47.6579 5.37216C47.7905 4.90814 48.0092 4.52036 48.3142 4.20881C48.6191 3.89394 48.992 3.65862 49.4328 3.50284C49.8736 3.34375 50.3608 3.2642 50.8944 3.2642C51.2623 3.2642 51.6286 3.30729 51.9931 3.39347C52.3577 3.47964 52.6908 3.62216 52.9924 3.82102C53.294 4.01657 53.536 4.28338 53.7183 4.62145C53.9039 4.95952 53.9967 5.3821 53.9967 5.8892V11H52.2666V9.95099H52.2069C52.0976 10.1631 51.9434 10.362 51.7446 10.5476C51.549 10.7299 51.3021 10.8774 51.0038 10.9901C50.7088 11.0994 50.3625 11.1541 49.9647 11.1541ZM50.4321 9.83168C50.7933 9.83168 51.1065 9.76042 51.3717 9.6179C51.6368 9.47206 51.8407 9.27983 51.9832 9.04119C52.129 8.80256 52.202 8.54238 52.202 8.26065V7.3608C52.1456 7.4072 52.0495 7.45028 51.9136 7.49006C51.781 7.52983 51.6319 7.56463 51.4662 7.59446C51.3004 7.62429 51.1364 7.6508 50.974 7.67401C50.8116 7.69721 50.6707 7.71709 50.5514 7.73366C50.2829 7.77012 50.0426 7.82978 49.8305 7.91264C49.6184 7.9955 49.451 8.11151 49.3284 8.26065C49.2057 8.40649 49.1444 8.59541 49.1444 8.82741C49.1444 9.15885 49.2654 9.40909 49.5074 9.57812C49.7493 9.74716 50.0575 9.83168 50.4321 9.83168ZM62.5419 5.3821L60.9012 5.56108C60.8548 5.39536 60.7736 5.23958 60.6576 5.09375C60.5449 4.94792 60.3925 4.83026 60.2003 4.74077C60.008 4.65128 59.7727 4.60653 59.4943 4.60653C59.1198 4.60653 58.8049 4.68774 58.5497 4.85014C58.2978 5.01255 58.1735 5.22301 58.1768 5.48153C58.1735 5.7036 58.2547 5.88423 58.4204 6.02344C58.5895 6.16264 58.8679 6.27699 59.2556 6.36648L60.5582 6.64489C61.2807 6.80066 61.8177 7.04759 62.169 7.38565C62.5236 7.72372 62.7026 8.16619 62.7059 8.71307C62.7026 9.19366 62.5618 9.6179 62.2833 9.9858C62.0083 10.3504 61.6254 10.6354 61.1349 10.8409C60.6444 11.0464 60.0809 11.1491 59.4446 11.1491C58.5099 11.1491 57.7575 10.9536 57.1875 10.5625C56.6174 10.1681 56.2777 9.61955 56.1683 8.9169L57.9233 8.74787C58.0028 9.09257 58.1718 9.35275 58.4304 9.52841C58.6889 9.70407 59.0253 9.7919 59.4396 9.7919C59.8672 9.7919 60.2102 9.70407 60.4687 9.52841C60.7306 9.35275 60.8615 9.13565 60.8615 8.87713C60.8615 8.65838 60.777 8.47775 60.6079 8.33523C60.4422 8.19271 60.1837 8.08333 59.8324 8.0071L58.5298 7.73366C57.7973 7.5812 57.2554 7.32434 56.9041 6.96307C56.5528 6.59848 56.3788 6.13778 56.3821 5.58097C56.3788 5.11032 56.5064 4.70265 56.7649 4.35795C57.0267 4.00994 57.3896 3.74148 57.8537 3.55256C58.321 3.36032 58.8596 3.2642 59.4694 3.2642C60.3643 3.2642 61.0686 3.45478 61.5824 3.83594C62.0994 4.21709 62.4192 4.73248 62.5419 5.3821ZM68.7032 3.36364V4.75568H64.3132V3.36364H68.7032ZM65.3971 1.53409H67.1968V8.70312C67.1968 8.94508 67.2332 9.13068 67.3061 9.25994C67.3824 9.38589 67.4818 9.47206 67.6044 9.51847C67.7271 9.56487 67.863 9.58807 68.0121 9.58807C68.1248 9.58807 68.2275 9.57978 68.3203 9.56321C68.4165 9.54664 68.4894 9.53172 68.5391 9.51847L68.8424 10.9254C68.7462 10.9586 68.6087 10.995 68.4297 11.0348C68.2541 11.0746 68.0386 11.0978 67.7834 11.1044C67.3327 11.1177 66.9266 11.0497 66.5654 10.9006C66.2041 10.7481 65.9174 10.5128 65.7053 10.1946C65.4965 9.87642 65.3937 9.47869 65.3971 9.00142V1.53409ZM74.207 11.1491C73.4413 11.1491 72.7801 10.9901 72.2233 10.6719C71.6698 10.3504 71.2439 9.89631 70.9456 9.30966C70.6473 8.7197 70.4982 8.02533 70.4982 7.22656C70.4982 6.44105 70.6473 5.75166 70.9456 5.15838C71.2472 4.56179 71.6681 4.09777 72.2084 3.76633C72.7486 3.43158 73.3833 3.2642 74.1125 3.2642C74.5831 3.2642 75.0273 3.34044 75.4449 3.4929C75.8658 3.64205 76.237 3.87405 76.5585 4.18892C76.8833 4.50379 77.1385 4.90483 77.3242 5.39205C77.5098 5.87595 77.6026 6.45265 77.6026 7.12216V7.67401H71.3433V6.46094H75.8774C75.8741 6.11624 75.7995 5.80966 75.6537 5.54119C75.5079 5.26941 75.304 5.05563 75.0422 4.89986C74.7837 4.74408 74.4821 4.66619 74.1374 4.66619C73.7695 4.66619 73.4463 4.75568 73.1679 4.93466C72.8895 5.11032 72.6724 5.34233 72.5166 5.63068C72.3642 5.91572 72.2863 6.22893 72.283 6.57031V7.62926C72.283 8.07339 72.3642 8.45455 72.5266 8.77273C72.689 9.08759 72.916 9.32955 73.2077 9.49858C73.4993 9.6643 73.8407 9.74716 74.2318 9.74716C74.4937 9.74716 74.7306 9.7107 74.9428 9.63778C75.1549 9.56155 75.3388 9.45052 75.4946 9.30469C75.6504 9.15885 75.768 8.97822 75.8476 8.76278L77.528 8.9517C77.4219 9.39583 77.2197 9.78362 76.9215 10.1151C76.6265 10.4432 76.2486 10.6984 75.7879 10.8807C75.3272 11.0597 74.8002 11.1491 74.207 11.1491ZM87.811 3.36364V4.75568H83.4211V3.36364H87.811ZM84.5049 1.53409H86.3046V8.70312C86.3046 8.94508 86.341 9.13068 86.414 9.25994C86.4902 9.38589 86.5896 9.47206 86.7122 9.51847C86.8349 9.56487 86.9708 9.58807 87.1199 9.58807C87.2326 9.58807 87.3354 9.57978 87.4282 9.56321C87.5243 9.54664 87.5972 9.53172 87.6469 9.51847L87.9502 10.9254C87.8541 10.9586 87.7165 10.995 87.5375 11.0348C87.3619 11.0746 87.1464 11.0978 86.8912 11.1044C86.4405 11.1177 86.0345 11.0497 85.6732 10.9006C85.3119 10.7481 85.0252 10.5128 84.8131 10.1946C84.6043 9.87642 84.5015 9.47869 84.5049 9.00142V1.53409ZM94.8833 7.78835V3.36364H96.683V11H94.938V9.64276H94.8585C94.6861 10.0703 94.4027 10.42 94.0083 10.6918C93.6172 10.9635 93.135 11.0994 92.5616 11.0994C92.0611 11.0994 91.6186 10.9884 91.2342 10.7663C90.853 10.541 90.5547 10.2145 90.3393 9.78693C90.1238 9.35606 90.0161 8.8357 90.0161 8.22585V3.36364H91.8158V7.94744C91.8158 8.43134 91.9484 8.81581 92.2136 9.10085C92.4787 9.38589 92.8267 9.52841 93.2576 9.52841C93.5228 9.52841 93.7796 9.46378 94.0282 9.33452C94.2768 9.20526 94.4806 9.01302 94.6397 8.75781C94.8021 8.49929 94.8833 8.17614 94.8833 7.78835ZM106.737 11.1491C105.975 11.1491 105.32 10.9818 104.774 10.647C104.23 10.3123 103.811 9.84991 103.516 9.25994C103.224 8.66667 103.078 7.9839 103.078 7.21165C103.078 6.43608 103.227 5.75166 103.526 5.15838C103.824 4.56179 104.245 4.09777 104.788 3.76633C105.335 3.43158 105.982 3.2642 106.727 3.2642C107.347 3.2642 107.896 3.37855 108.373 3.60724C108.854 3.83262 109.236 4.15246 109.521 4.56676C109.806 4.97775 109.969 5.45833 110.009 6.00852H108.288C108.219 5.64062 108.053 5.33404 107.791 5.08878C107.533 4.8402 107.186 4.71591 106.752 4.71591C106.384 4.71591 106.061 4.81534 105.783 5.0142C105.504 5.20975 105.287 5.49148 105.132 5.85938C104.979 6.22727 104.903 6.66809 104.903 7.18182C104.903 7.70218 104.979 8.14962 105.132 8.52415C105.284 8.89536 105.498 9.18205 105.773 9.38423C106.051 9.5831 106.378 9.68253 106.752 9.68253C107.017 9.68253 107.254 9.63281 107.463 9.53338C107.675 9.43063 107.853 9.28314 107.995 9.09091C108.138 8.89867 108.235 8.66501 108.288 8.38991H110.009C109.966 8.93016 109.806 9.40909 109.531 9.8267C109.256 10.241 108.882 10.5658 108.408 10.8011C107.934 11.0331 107.377 11.1491 106.737 11.1491ZM115.517 11.1491C114.772 11.1491 114.125 10.9851 113.578 10.657C113.032 10.3288 112.607 9.86979 112.306 9.27983C112.007 8.68987 111.858 8.00047 111.858 7.21165C111.858 6.42282 112.007 5.73177 112.306 5.13849C112.607 4.54522 113.032 4.08452 113.578 3.75639C114.125 3.42827 114.772 3.2642 115.517 3.2642C116.263 3.2642 116.909 3.42827 117.456 3.75639C118.003 4.08452 118.426 4.54522 118.724 5.13849C119.026 5.73177 119.176 6.42282 119.176 7.21165C119.176 8.00047 119.026 8.68987 118.724 9.27983C118.426 9.86979 118.003 10.3288 117.456 10.657C116.909 10.9851 116.263 11.1491 115.517 11.1491ZM115.527 9.70739C115.932 9.70739 116.27 9.59635 116.542 9.37429C116.813 9.14891 117.016 8.8473 117.148 8.46946C117.284 8.09162 117.352 7.67069 117.352 7.20668C117.352 6.73935 117.284 6.31676 117.148 5.93892C117.016 5.55777 116.813 5.2545 116.542 5.02912C116.27 4.80374 115.932 4.69105 115.527 4.69105C115.113 4.69105 114.768 4.80374 114.493 5.02912C114.221 5.2545 114.018 5.55777 113.882 5.93892C113.749 6.31676 113.683 6.73935 113.683 7.20668C113.683 7.67069 113.749 8.09162 113.882 8.46946C114.018 8.8473 114.221 9.14891 114.493 9.37429C114.768 9.59635 115.113 9.70739 115.527 9.70739ZM123.204 6.52557V11H121.404V3.36364H123.124V4.66122H123.214C123.389 4.23366 123.669 3.89394 124.054 3.64205C124.442 3.39015 124.921 3.2642 125.491 3.2642C126.018 3.2642 126.477 3.37689 126.868 3.60227C127.262 3.82765 127.567 4.15412 127.783 4.58168C128.001 5.00923 128.109 5.52794 128.106 6.13778V11H126.306V6.41619C126.306 5.90578 126.173 5.50639 125.908 5.21804C125.646 4.92969 125.284 4.78551 124.819 4.78551C124.505 4.78551 124.225 4.85511 123.979 4.99432C123.737 5.13021 123.547 5.32741 123.408 5.58594C123.272 5.84446 123.204 6.15767 123.204 6.52557ZM134.448 3.36364V4.75568H130.059V3.36364H134.448ZM131.142 1.53409H132.942V8.70312C132.942 8.94508 132.979 9.13068 133.051 9.25994C133.128 9.38589 133.227 9.47206 133.35 9.51847C133.472 9.56487 133.608 9.58807 133.757 9.58807C133.87 9.58807 133.973 9.57978 134.066 9.56321C134.162 9.54664 134.235 9.53172 134.284 9.51847L134.588 10.9254C134.492 10.9586 134.354 10.995 134.175 11.0348C133.999 11.0746 133.784 11.0978 133.529 11.1044C133.078 11.1177 132.672 11.0497 132.311 10.9006C131.949 10.7481 131.663 10.5128 131.451 10.1946C131.242 9.87642 131.139 9.47869 131.142 9.00142V1.53409ZM136.654 11V3.36364H138.399V4.63636H138.478C138.617 4.19555 138.856 3.85582 139.194 3.61719C139.535 3.37524 139.925 3.25426 140.362 3.25426C140.462 3.25426 140.573 3.25923 140.696 3.26918C140.821 3.2758 140.926 3.2874 141.009 3.30398V4.95952C140.933 4.933 140.812 4.9098 140.646 4.88991C140.483 4.86671 140.326 4.85511 140.174 4.85511C139.845 4.85511 139.55 4.92637 139.289 5.06889C139.03 5.2081 138.826 5.40199 138.677 5.65057C138.528 5.89915 138.453 6.18584 138.453 6.51065V11H136.654ZM144.965 11.1541C144.481 11.1541 144.045 11.0679 143.658 10.8956C143.273 10.7199 142.968 10.4614 142.743 10.12C142.521 9.77865 142.41 9.35772 142.41 8.85724C142.41 8.42637 142.489 8.07008 142.648 7.78835C142.807 7.50663 143.025 7.28125 143.3 7.11222C143.575 6.94318 143.885 6.81558 144.229 6.7294C144.577 6.63991 144.937 6.57528 145.308 6.53551C145.756 6.48911 146.119 6.44768 146.397 6.41122C146.675 6.37145 146.878 6.31179 147.003 6.23224C147.133 6.14938 147.197 6.02178 147.197 5.84943V5.8196C147.197 5.44508 147.086 5.15507 146.864 4.94957C146.642 4.74408 146.322 4.64134 145.905 4.64134C145.464 4.64134 145.114 4.73745 144.856 4.92969C144.601 5.12192 144.428 5.34896 144.339 5.6108L142.658 5.37216C142.791 4.90814 143.01 4.52036 143.315 4.20881C143.619 3.89394 143.992 3.65862 144.433 3.50284C144.874 3.34375 145.361 3.2642 145.895 3.2642C146.263 3.2642 146.629 3.30729 146.994 3.39347C147.358 3.47964 147.691 3.62216 147.993 3.82102C148.294 4.01657 148.536 4.28338 148.719 4.62145C148.904 4.95952 148.997 5.3821 148.997 5.8892V11H147.267V9.95099H147.207C147.098 10.1631 146.944 10.362 146.745 10.5476C146.549 10.7299 146.302 10.8774 146.004 10.9901C145.709 11.0994 145.363 11.1541 144.965 11.1541ZM145.432 9.83168C145.794 9.83168 146.107 9.76042 146.372 9.6179C146.637 9.47206 146.841 9.27983 146.984 9.04119C147.129 8.80256 147.202 8.54238 147.202 8.26065V7.3608C147.146 7.4072 147.05 7.45028 146.914 7.49006C146.781 7.52983 146.632 7.56463 146.467 7.59446C146.301 7.62429 146.137 7.6508 145.974 7.67401C145.812 7.69721 145.671 7.71709 145.552 7.73366C145.283 7.77012 145.043 7.82978 144.831 7.91264C144.619 7.9955 144.451 8.11151 144.329 8.26065C144.206 8.40649 144.145 8.59541 144.145 8.82741C144.145 9.15885 144.266 9.40909 144.508 9.57812C144.75 9.74716 145.058 9.83168 145.432 9.83168ZM157.542 5.3821L155.902 5.56108C155.855 5.39536 155.774 5.23958 155.658 5.09375C155.545 4.94792 155.393 4.83026 155.201 4.74077C155.008 4.65128 154.773 4.60653 154.495 4.60653C154.12 4.60653 153.805 4.68774 153.55 4.85014C153.298 5.01255 153.174 5.22301 153.177 5.48153C153.174 5.7036 153.255 5.88423 153.421 6.02344C153.59 6.16264 153.868 6.27699 154.256 6.36648L155.559 6.64489C156.281 6.80066 156.818 7.04759 157.169 7.38565C157.524 7.72372 157.703 8.16619 157.706 8.71307C157.703 9.19366 157.562 9.6179 157.284 9.9858C157.009 10.3504 156.626 10.6354 156.135 10.8409C155.645 11.0464 155.081 11.1491 154.445 11.1491C153.51 11.1491 152.758 10.9536 152.188 10.5625C151.618 10.1681 151.278 9.61955 151.169 8.9169L152.924 8.74787C153.003 9.09257 153.172 9.35275 153.431 9.52841C153.689 9.70407 154.026 9.7919 154.44 9.7919C154.868 9.7919 155.211 9.70407 155.469 9.52841C155.731 9.35275 155.862 9.13565 155.862 8.87713C155.862 8.65838 155.777 8.47775 155.608 8.33523C155.443 8.19271 155.184 8.08333 154.833 8.0071L153.53 7.73366C152.798 7.5812 152.256 7.32434 151.904 6.96307C151.553 6.59848 151.379 6.13778 151.382 5.58097C151.379 5.11032 151.507 4.70265 151.765 4.35795C152.027 4.00994 152.39 3.74148 152.854 3.55256C153.321 3.36032 153.86 3.2642 154.47 3.2642C155.365 3.2642 156.069 3.45478 156.583 3.83594C157.1 4.21709 157.42 4.73248 157.542 5.3821ZM163.271 11.1491C162.505 11.1491 161.844 10.9901 161.287 10.6719C160.734 10.3504 160.308 9.89631 160.01 9.30966C159.711 8.7197 159.562 8.02533 159.562 7.22656C159.562 6.44105 159.711 5.75166 160.01 5.15838C160.311 4.56179 160.732 4.09777 161.272 3.76633C161.813 3.43158 162.447 3.2642 163.177 3.2642C163.647 3.2642 164.091 3.34044 164.509 3.4929C164.93 3.64205 165.301 3.87405 165.623 4.18892C165.947 4.50379 166.203 4.90483 166.388 5.39205C166.574 5.87595 166.667 6.45265 166.667 7.12216V7.67401H160.407V6.46094H164.941C164.938 6.11624 164.864 5.80966 164.718 5.54119C164.572 5.26941 164.368 5.05563 164.106 4.89986C163.848 4.74408 163.546 4.66619 163.201 4.66619C162.834 4.66619 162.51 4.75568 162.232 4.93466C161.954 5.11032 161.736 5.34233 161.581 5.63068C161.428 5.91572 161.35 6.22893 161.347 6.57031V7.62926C161.347 8.07339 161.428 8.45455 161.591 8.77273C161.753 9.08759 161.98 9.32955 162.272 9.49858C162.563 9.6643 162.905 9.74716 163.296 9.74716C163.558 9.74716 163.795 9.7107 164.007 9.63778C164.219 9.56155 164.403 9.45052 164.559 9.30469C164.714 9.15885 164.832 8.97822 164.912 8.76278L166.592 8.9517C166.486 9.39583 166.284 9.78362 165.986 10.1151C165.691 10.4432 165.313 10.6984 164.852 10.8807C164.391 11.0597 163.864 11.1491 163.271 11.1491ZM170.689 6.52557V11H168.889V3.36364H170.609V4.66122H170.699C170.874 4.23366 171.155 3.89394 171.539 3.64205C171.927 3.39015 172.406 3.2642 172.976 3.2642C173.503 3.2642 173.962 3.37689 174.353 3.60227C174.747 3.82765 175.052 4.15412 175.268 4.58168C175.486 5.00923 175.594 5.52794 175.591 6.13778V11H173.791V6.41619C173.791 5.90578 173.659 5.50639 173.393 5.21804C173.132 4.92969 172.769 4.78551 172.305 4.78551C171.99 4.78551 171.71 4.85511 171.464 4.99432C171.222 5.13021 171.032 5.32741 170.893 5.58594C170.757 5.84446 170.689 6.15767 170.689 6.52557ZM170.773 2.43395L169.685 2.40909C169.685 1.81913 169.837 1.35677 170.142 1.02202C170.447 0.687263 170.823 0.519886 171.271 0.519886C171.486 0.519886 171.673 0.556344 171.832 0.629261C171.991 0.698863 172.137 0.780066 172.27 0.872869C172.406 0.965672 172.538 1.04853 172.668 1.12145C172.797 1.19105 172.939 1.22585 173.095 1.22585C173.284 1.22585 173.433 1.15459 173.543 1.01207C173.655 0.869555 173.713 0.687263 173.717 0.465199L174.785 0.509943C174.782 1.10322 174.628 1.56392 174.323 1.89205C174.018 2.21686 173.644 2.38092 173.2 2.38423C172.961 2.38755 172.76 2.35275 172.598 2.27983C172.436 2.20691 172.293 2.12405 172.17 2.03125C172.051 1.93845 171.93 1.85724 171.807 1.78764C171.685 1.71473 171.541 1.67827 171.375 1.67827C171.199 1.67827 171.055 1.74787 170.942 1.88707C170.83 2.02628 170.773 2.20857 170.773 2.43395ZM180.318 11.1541C179.834 11.1541 179.398 11.0679 179.01 10.8956C178.626 10.7199 178.321 10.4614 178.096 10.12C177.874 9.77865 177.762 9.35772 177.762 8.85724C177.762 8.42637 177.842 8.07008 178.001 7.78835C178.16 7.50663 178.377 7.28125 178.652 7.11222C178.927 6.94318 179.237 6.81558 179.582 6.7294C179.93 6.63991 180.29 6.57528 180.661 6.53551C181.108 6.48911 181.471 6.44768 181.75 6.41122C182.028 6.37145 182.23 6.31179 182.356 6.23224C182.485 6.14938 182.55 6.02178 182.55 5.84943V5.8196C182.55 5.44508 182.439 5.15507 182.217 4.94957C181.995 4.74408 181.675 4.64134 181.257 4.64134C180.817 4.64134 180.467 4.73745 180.208 4.92969C179.953 5.12192 179.781 5.34896 179.691 5.6108L178.011 5.37216C178.144 4.90814 178.362 4.52036 178.667 4.20881C178.972 3.89394 179.345 3.65862 179.786 3.50284C180.227 3.34375 180.714 3.2642 181.248 3.2642C181.615 3.2642 181.982 3.30729 182.346 3.39347C182.711 3.47964 183.044 3.62216 183.346 3.82102C183.647 4.01657 183.889 4.28338 184.071 4.62145C184.257 4.95952 184.35 5.3821 184.35 5.8892V11H182.62V9.95099H182.56C182.451 10.1631 182.297 10.362 182.098 10.5476C181.902 10.7299 181.655 10.8774 181.357 10.9901C181.062 11.0994 180.716 11.1541 180.318 11.1541ZM180.785 9.83168C181.146 9.83168 181.46 9.76042 181.725 9.6179C181.99 9.47206 182.194 9.27983 182.336 9.04119C182.482 8.80256 182.555 8.54238 182.555 8.26065V7.3608C182.499 7.4072 182.403 7.45028 182.267 7.49006C182.134 7.52983 181.985 7.56463 181.819 7.59446C181.654 7.62429 181.49 7.6508 181.327 7.67401C181.165 7.69721 181.024 7.71709 180.905 7.73366C180.636 7.77012 180.396 7.82978 180.184 7.91264C179.972 7.9955 179.804 8.11151 179.682 8.26065C179.559 8.40649 179.498 8.59541 179.498 8.82741C179.498 9.15885 179.619 9.40909 179.86 9.57812C180.102 9.74716 180.411 9.83168 180.785 9.83168ZM188.58 8.0071V7.87784C188.583 7.27794 188.639 6.80066 188.749 6.44602C188.861 6.09138 189.02 5.80634 189.226 5.59091C189.431 5.37216 189.682 5.17164 189.977 4.98935C190.179 4.8634 190.359 4.72585 190.519 4.5767C190.681 4.42424 190.809 4.25521 190.901 4.0696C190.994 3.88068 191.041 3.67022 191.041 3.43821C191.041 3.17637 190.979 2.94934 190.857 2.7571C190.734 2.56487 190.568 2.41572 190.359 2.30966C190.154 2.2036 189.924 2.15057 189.668 2.15057C189.433 2.15057 189.209 2.20194 188.997 2.30469C188.788 2.40412 188.614 2.55658 188.475 2.76207C188.339 2.96425 188.263 3.22112 188.247 3.53267H186.477C186.493 2.90294 186.646 2.37595 186.934 1.9517C187.226 1.52746 187.61 1.20928 188.087 0.997158C188.568 0.785037 189.098 0.678977 189.678 0.678977C190.311 0.678977 190.868 0.790009 191.349 1.01207C191.833 1.23414 192.209 1.55066 192.477 1.96165C192.749 2.36932 192.885 2.85322 192.885 3.41335C192.885 3.79119 192.824 4.12926 192.701 4.42756C192.582 4.72585 192.411 4.991 192.189 5.22301C191.967 5.45502 191.703 5.66217 191.399 5.84446C191.13 6.01018 190.91 6.18253 190.737 6.36151C190.568 6.54048 190.442 6.75095 190.359 6.9929C190.28 7.23153 190.239 7.52652 190.235 7.87784V8.0071H188.58ZM189.445 11.1094C189.146 11.1094 188.89 11.0033 188.674 10.7912C188.459 10.5791 188.351 10.3205 188.351 10.0156C188.351 9.71733 188.459 9.46212 188.674 9.25C188.89 9.03788 189.146 8.93182 189.445 8.93182C189.74 8.93182 189.995 9.03788 190.21 9.25C190.429 9.46212 190.538 9.71733 190.538 10.0156C190.538 10.2178 190.487 10.4018 190.384 10.5675C190.285 10.7332 190.152 10.8658 189.987 10.9652C189.824 11.0613 189.644 11.1094 189.445 11.1094Z" fill="#000B3F"/>
</svg>
