<svg width="405" height="77" viewBox="0 0 405 77" fill="none" xmlns="http://www.w3.org/2000/svg">
<path d="M0.109375 29V0.5625H12.1797C15.2656 0.5625 17.5898 1.19401 19.1523 2.45703C20.7148 3.72005 21.4961 5.53646 21.4961 7.90625C21.4961 9.49479 21.151 10.8164 20.4609 11.8711C19.7708 12.9128 18.8789 13.6289 17.7852 14.0195V14.0977C19.1263 14.4492 20.2396 15.1849 21.125 16.3047C22.0234 17.4245 22.4727 18.9674 22.4727 20.9336C22.4727 23.4727 21.5872 25.4518 19.8164 26.8711C18.0456 28.2904 15.6497 29 12.6289 29H0.109375ZM7.62891 23.9414H11.2617C12.4466 23.9414 13.319 23.6094 13.8789 22.9453C14.4518 22.2812 14.7383 21.3893 14.7383 20.2695C14.7383 19.1628 14.4518 18.2773 13.8789 17.6133C13.319 16.9492 12.4466 16.6172 11.2617 16.6172H7.62891V23.9414ZM7.62891 12.3984H10.8711C12.0039 12.3984 12.8242 12.1055 13.332 11.5195C13.8529 10.9336 14.1133 10.1133 14.1133 9.05859C14.1133 8.00391 13.8529 7.19661 13.332 6.63672C12.8242 6.07682 12.0039 5.79688 10.8711 5.79688H7.62891V12.3984ZM25.5781 29V0.5625H33.332V29H25.5781ZM37.5703 29V0.5625H57.1797V6.48047H45.0117V11.832H55.4805V17.2422H45.0117V23.2188H57.4531V29H37.5703ZM60.2656 29V0.5625H68.1172L75.4023 15.4062C75.5846 15.8099 75.7539 16.2266 75.9102 16.6562C76.0664 17.0859 76.2031 17.5156 76.3203 17.9453H76.4375C76.4245 17.4896 76.418 17.0534 76.418 16.6367C76.418 16.207 76.418 15.7708 76.418 15.3281V0.5625H82.8828V29H75.0703L67.707 14.1562C67.5117 13.7526 67.3424 13.349 67.1992 12.9453C67.056 12.5286 66.9258 12.1055 66.8086 11.6758H66.6719C66.6979 12.1315 66.7109 12.5612 66.7109 12.9648C66.724 13.3685 66.7305 13.7917 66.7305 14.2344V29H60.2656ZM84.3672 0.5625H92.3945L97.9414 17.8672C98.0326 18.1406 98.1107 18.4141 98.1758 18.6875C98.2409 18.9609 98.3125 19.2604 98.3906 19.5859H98.5078C98.5729 19.2604 98.638 18.9544 98.7031 18.668C98.7812 18.3815 98.8659 18.1146 98.957 17.8672L104.523 0.5625H111.926L102.395 29.1172H93.8984L84.3672 0.5625ZM113.43 29V0.5625H133.039V6.48047H120.871V11.832H131.34V17.2422H120.871V23.2188H133.312V29H113.43ZM136.125 29V0.5625H143.977L151.262 15.4062C151.444 15.8099 151.613 16.2266 151.77 16.6562C151.926 17.0859 152.062 17.5156 152.18 17.9453H152.297C152.284 17.4896 152.277 17.0534 152.277 16.6367C152.277 16.207 152.277 15.7708 152.277 15.3281V0.5625H158.742V29H150.93L143.566 14.1562C143.371 13.7526 143.202 13.349 143.059 12.9453C142.915 12.5286 142.785 12.1055 142.668 11.6758H142.531C142.557 12.1315 142.57 12.5612 142.57 12.9648C142.583 13.3685 142.59 13.7917 142.59 14.2344V29H136.125ZM162.961 29V0.5625H170.715V29H162.961ZM174.953 29V0.5625H185.539C189.328 0.5625 192.382 1.72786 194.699 4.05859C197.017 6.38932 198.176 9.67708 198.176 13.9219V15.5625C198.176 19.7943 197.01 23.0951 194.68 25.4648C192.362 27.8216 189.315 29 185.539 29H174.953ZM182.473 23.6484H184.973C186.626 23.6484 187.941 23.0495 188.918 21.8516C189.895 20.6536 190.383 18.8177 190.383 16.3438V13.2383C190.383 10.7383 189.888 8.92188 188.898 7.78906C187.922 6.64323 186.613 6.07031 184.973 6.07031H182.473V23.6484ZM200.852 15.6016V13.9609C200.852 9.23438 202.03 5.74479 204.387 3.49219C206.743 1.22656 209.764 0.09375 213.449 0.09375C217.134 0.09375 220.161 1.22656 222.531 3.49219C224.901 5.74479 226.086 9.23438 226.086 13.9609V15.6016C226.086 20.3281 224.901 23.8242 222.531 26.0898C220.161 28.3424 217.134 29.4688 213.449 29.4688C209.764 29.4688 206.743 28.3424 204.387 26.0898C202.03 23.8242 200.852 20.3281 200.852 15.6016ZM208.82 17.3984C208.82 19.7812 209.23 21.5 210.051 22.5547C210.871 23.5964 212.004 24.1172 213.449 24.1172C214.895 24.1172 216.034 23.5964 216.867 22.5547C217.701 21.5 218.117 19.7812 218.117 17.3984V12.2031C218.117 9.83333 217.701 8.1276 216.867 7.08594C216.034 6.04427 214.895 5.52344 213.449 5.52344C212.004 5.52344 210.871 6.04427 210.051 7.08594C209.23 8.1276 208.82 9.83333 208.82 12.2031V17.3984ZM236.945 29L246.77 0.503906H255.148L264.953 29H257.121L251.223 10.5039C251.066 10.0091 250.943 9.56641 250.852 9.17578C250.76 8.77214 250.682 8.42057 250.617 8.12109H250.52C250.467 8.42057 250.389 8.77214 250.285 9.17578C250.194 9.56641 250.077 10.0026 249.934 10.4844L244.211 29H236.945ZM243.039 23.707L244.27 18.5117H257.18L258.488 23.707H243.039ZM276.594 29V0.5625H287.18C290.969 0.5625 294.022 1.72786 296.34 4.05859C298.658 6.38932 299.816 9.67708 299.816 13.9219V15.5625C299.816 19.7943 298.651 23.0951 296.32 25.4648C294.003 27.8216 290.956 29 287.18 29H276.594ZM284.113 23.6484H286.613C288.267 23.6484 289.582 23.0495 290.559 21.8516C291.535 20.6536 292.023 18.8177 292.023 16.3438V13.2383C292.023 10.7383 291.529 8.92188 290.539 7.78906C289.562 6.64323 288.254 6.07031 286.613 6.07031H284.113V23.6484ZM302.492 15.6016V13.9609C302.492 9.23438 303.671 5.74479 306.027 3.49219C308.384 1.22656 311.405 0.09375 315.09 0.09375C318.775 0.09375 321.802 1.22656 324.172 3.49219C326.542 5.74479 327.727 9.23438 327.727 13.9609V15.6016C327.727 20.3281 326.542 23.8242 324.172 26.0898C321.802 28.3424 318.775 29.4688 315.09 29.4688C311.405 29.4688 308.384 28.3424 306.027 26.0898C303.671 23.8242 302.492 20.3281 302.492 15.6016ZM310.461 17.3984C310.461 19.7812 310.871 21.5 311.691 22.5547C312.512 23.5964 313.645 24.1172 315.09 24.1172C316.535 24.1172 317.674 23.5964 318.508 22.5547C319.341 21.5 319.758 19.7812 319.758 17.3984V12.2031C319.758 9.83333 319.341 8.1276 318.508 7.08594C317.674 6.04427 316.535 5.52344 315.09 5.52344C313.645 5.52344 312.512 6.04427 311.691 7.08594C310.871 8.1276 310.461 9.83333 310.461 12.2031V17.3984ZM331.164 29V0.5625H339.016L346.301 15.4062C346.483 15.8099 346.652 16.2266 346.809 16.6562C346.965 17.0859 347.102 17.5156 347.219 17.9453H347.336C347.323 17.4896 347.316 17.0534 347.316 16.6367C347.316 16.207 347.316 15.7708 347.316 15.3281V0.5625H353.781V29H345.969L338.605 14.1562C338.41 13.7526 338.241 13.349 338.098 12.9453C337.954 12.5286 337.824 12.1055 337.707 11.6758H337.57C337.596 12.1315 337.609 12.5612 337.609 12.9648C337.622 13.3685 337.629 13.7917 337.629 14.2344V29H331.164ZM358 29V0.5625H368.586C372.375 0.5625 375.428 1.72786 377.746 4.05859C380.064 6.38932 381.223 9.67708 381.223 13.9219V15.5625C381.223 19.7943 380.057 23.0951 377.727 25.4648C375.409 27.8216 372.362 29 368.586 29H358ZM365.52 23.6484H368.02C369.673 23.6484 370.988 23.0495 371.965 21.8516C372.941 20.6536 373.43 18.8177 373.43 16.3438V13.2383C373.43 10.7383 372.935 8.92188 371.945 7.78906C370.969 6.64323 369.66 6.07031 368.02 6.07031H365.52V23.6484ZM384.68 29V0.5625H404.289V6.48047H392.121V11.832H402.59V17.2422H392.121V23.2188H404.562V29H384.68ZM0.109375 76V47.5625H12.1797C15.2656 47.5625 17.5898 48.194 19.1523 49.457C20.7148 50.7201 21.4961 52.5365 21.4961 54.9062C21.4961 56.4948 21.151 57.8164 20.4609 58.8711C19.7708 59.9128 18.8789 60.6289 17.7852 61.0195V61.0977C19.1263 61.4492 20.2396 62.1849 21.125 63.3047C22.0234 64.4245 22.4727 65.9674 22.4727 67.9336C22.4727 70.4727 21.5872 72.4518 19.8164 73.8711C18.0456 75.2904 15.6497 76 12.6289 76H0.109375ZM7.62891 70.9414H11.2617C12.4466 70.9414 13.319 70.6094 13.8789 69.9453C14.4518 69.2812 14.7383 68.3893 14.7383 67.2695C14.7383 66.1628 14.4518 65.2773 13.8789 64.6133C13.319 63.9492 12.4466 63.6172 11.2617 63.6172H7.62891V70.9414ZM7.62891 59.3984H10.8711C12.0039 59.3984 12.8242 59.1055 13.332 58.5195C13.8529 57.9336 14.1133 57.1133 14.1133 56.0586C14.1133 55.0039 13.8529 54.1966 13.332 53.6367C12.8242 53.0768 12.0039 52.7969 10.8711 52.7969H7.62891V59.3984ZM25.5781 76V47.5625H45.1875V53.4805H33.0195V58.832H43.4883V64.2422H33.0195V70.2188H45.4609V76H25.5781ZM46.7891 53.4805V47.5625H69.9141V53.4805H62.2383V76H54.4844V53.4805H46.7891ZM71.0078 62.6016V60.9609C71.0078 56.2344 72.1862 52.7448 74.543 50.4922C76.8997 48.2266 79.9206 47.0938 83.6055 47.0938C87.2904 47.0938 90.3177 48.2266 92.6875 50.4922C95.0573 52.7448 96.2422 56.2344 96.2422 60.9609V62.6016C96.2422 67.3281 95.0573 70.8242 92.6875 73.0898C90.3177 75.3424 87.2904 76.4688 83.6055 76.4688C79.9206 76.4688 76.8997 75.3424 74.543 73.0898C72.1862 70.8242 71.0078 67.3281 71.0078 62.6016ZM78.9766 64.3984C78.9766 66.7812 79.3867 68.5 80.207 69.5547C81.0273 70.5964 82.1602 71.1172 83.6055 71.1172C85.0508 71.1172 86.1901 70.5964 87.0234 69.5547C87.8568 68.5 88.2734 66.7812 88.2734 64.3984V59.2031C88.2734 56.8333 87.8568 55.1276 87.0234 54.0859C86.1901 53.0443 85.0508 52.5234 83.6055 52.5234C82.1602 52.5234 81.0273 53.0443 80.207 54.0859C79.3867 55.1276 78.9766 56.8333 78.9766 59.2031V64.3984ZM109.719 76V47.5625H121.672C124.745 47.5625 127.173 48.3893 128.957 50.043C130.754 51.6836 131.652 53.9297 131.652 56.7812C131.652 59.6849 130.715 62.0026 128.84 63.7344C126.978 65.4661 124.569 66.332 121.613 66.332H117.395V76H109.719ZM117.395 61.2148H120.363C121.665 61.2148 122.583 60.8438 123.117 60.1016C123.651 59.3594 123.924 58.3568 123.938 57.0938C123.938 55.8438 123.664 54.8542 123.117 54.125C122.583 53.3828 121.665 53.0117 120.363 53.0117H117.395V61.2148ZM124.465 76L118.918 63.4414L126.184 62.0938L132.902 76H124.465ZM134.914 76V47.5625H154.523V53.4805H142.355V58.832H152.824V64.2422H142.355V70.2188H154.797V76H134.914ZM156.77 68.1484V66.957H164.055V67.6797C164.055 68.8776 164.393 69.776 165.07 70.375C165.76 70.9609 166.717 71.2539 167.941 71.2539C169.126 71.2539 170.038 71 170.676 70.4922C171.314 69.9714 171.633 69.2682 171.633 68.3828C171.633 67.5104 171.301 66.8268 170.637 66.332C169.973 65.8242 168.462 65.2383 166.105 64.5742C163.137 63.7018 160.891 62.5755 159.367 61.1953C157.857 59.8021 157.102 57.9271 157.102 55.5703C157.102 52.9271 158.072 50.8568 160.012 49.3594C161.952 47.849 164.523 47.0938 167.727 47.0938C170.93 47.0938 173.514 47.8099 175.48 49.2422C177.447 50.6615 178.43 52.6406 178.43 55.1797V56.1953H171.262V55.6289C171.262 54.6393 170.969 53.8646 170.383 53.3047C169.81 52.7318 168.964 52.4453 167.844 52.4453C166.685 52.4453 165.839 52.6732 165.305 53.1289C164.784 53.5846 164.523 54.1901 164.523 54.9453C164.523 55.7005 164.862 56.2865 165.539 56.7031C166.216 57.1198 167.785 57.6732 170.246 58.3633C173.085 59.1576 175.259 60.2643 176.77 61.6836C178.28 63.0898 179.035 65.082 179.035 67.6602C179.035 70.4727 178.02 72.6471 175.988 74.1836C173.957 75.707 171.301 76.4688 168.02 76.4688C164.751 76.4688 162.056 75.7721 159.934 74.3789C157.824 72.9727 156.77 70.8958 156.77 68.1484ZM180.188 53.4805V47.5625H203.312V53.4805H195.637V76H187.883V53.4805H180.188ZM204.406 62.6016V60.9609C204.406 56.2344 205.585 52.7448 207.941 50.4922C210.298 48.2266 213.319 47.0938 217.004 47.0938C220.689 47.0938 223.716 48.2266 226.086 50.4922C228.456 52.7448 229.641 56.2344 229.641 60.9609V62.6016C229.641 67.3281 228.456 70.8242 226.086 73.0898C223.716 75.3424 220.689 76.4688 217.004 76.4688C213.319 76.4688 210.298 75.3424 207.941 73.0898C205.585 70.8242 204.406 67.3281 204.406 62.6016ZM212.375 64.3984C212.375 66.7812 212.785 68.5 213.605 69.5547C214.426 70.5964 215.559 71.1172 217.004 71.1172C218.449 71.1172 219.589 70.5964 220.422 69.5547C221.255 68.5 221.672 66.7812 221.672 64.3984V59.2031C221.672 56.8333 221.255 55.1276 220.422 54.0859C219.589 53.0443 218.449 52.5234 217.004 52.5234C215.559 52.5234 214.426 53.0443 213.605 54.0859C212.785 55.1276 212.375 56.8333 212.375 59.2031V64.3984ZM233.078 76V47.5625H245.148C248.234 47.5625 250.559 48.194 252.121 49.457C253.684 50.7201 254.465 52.5365 254.465 54.9062C254.465 56.4948 254.12 57.8164 253.43 58.8711C252.74 59.9128 251.848 60.6289 250.754 61.0195V61.0977C252.095 61.4492 253.208 62.1849 254.094 63.3047C254.992 64.4245 255.441 65.9674 255.441 67.9336C255.441 70.4727 254.556 72.4518 252.785 73.8711C251.014 75.2904 248.618 76 245.598 76H233.078ZM240.598 70.9414H244.23C245.415 70.9414 246.288 70.6094 246.848 69.9453C247.421 69.2812 247.707 68.3893 247.707 67.2695C247.707 66.1628 247.421 65.2773 246.848 64.6133C246.288 63.9492 245.415 63.6172 244.23 63.6172H240.598V70.9414ZM240.598 59.3984H243.84C244.973 59.3984 245.793 59.1055 246.301 58.5195C246.822 57.9336 247.082 57.1133 247.082 56.0586C247.082 55.0039 246.822 54.1966 246.301 53.6367C245.793 53.0768 244.973 52.7969 243.84 52.7969H240.598V59.3984ZM255.852 76L265.676 47.5039H274.055L283.859 76H276.027L270.129 57.5039C269.973 57.0091 269.849 56.5664 269.758 56.1758C269.667 55.7721 269.589 55.4206 269.523 55.1211H269.426C269.374 55.4206 269.296 55.7721 269.191 56.1758C269.1 56.5664 268.983 57.0026 268.84 57.4844L263.117 76H255.852ZM261.945 70.707L263.176 65.5117H276.086L277.395 70.707H261.945ZM285.461 76V47.5625H297.414C300.487 47.5625 302.915 48.3893 304.699 50.043C306.496 51.6836 307.395 53.9297 307.395 56.7812C307.395 59.6849 306.457 62.0026 304.582 63.7344C302.72 65.4661 300.311 66.332 297.355 66.332H293.137V76H285.461ZM293.137 61.2148H296.105C297.408 61.2148 298.326 60.8438 298.859 60.1016C299.393 59.3594 299.667 58.3568 299.68 57.0938C299.68 55.8438 299.406 54.8542 298.859 54.125C298.326 53.3828 297.408 53.0117 296.105 53.0117H293.137V61.2148ZM300.207 76L294.66 63.4414L301.926 62.0938L308.645 76H300.207Z" fill="#383838"/>
</svg>
