<svg width="222" height="59" viewBox="0 0 222 59" fill="none" xmlns="http://www.w3.org/2000/svg">
<path d="M34.5375 57.1424H0.974182V55.5296C3.88724 54.9458 5.77784 54.1163 6.64539 53.0413C7.54428 51.9353 7.99353 50.1841 7.99353 47.788V11.1079C7.99353 8.5889 7.49767 6.80702 6.50596 5.76263C5.54539 4.68737 3.70139 3.95008 0.974182 3.55076V1.93797H30.3537C36.3658 1.93797 41.061 3.07457 44.439 5.34778C47.8171 7.59051 49.506 10.7701 49.506 14.8865C49.506 21.2763 45.3843 25.6079 37.1406 27.8813V28.0655C47.6777 29.9702 52.9461 34.824 52.9461 42.627C52.9461 46.9585 51.2725 50.4608 47.9256 53.1333C44.5784 55.806 40.1157 57.1424 34.5375 57.1424ZM20.266 5.07134V27.2362H24.7753C28.3393 27.2362 31.1284 26.2531 33.1428 24.287C35.1571 22.3209 36.1645 19.5867 36.1645 16.0847C36.1645 8.74245 32.0737 5.07134 23.8921 5.07134H20.266ZM26.8672 30.3236H20.266V47.235C20.266 49.6926 20.8858 51.4438 22.1254 52.4882C23.3651 53.5019 25.4415 54.0088 28.3548 54.0088C31.8567 54.0088 34.5994 52.9797 36.5828 50.9214C38.5972 48.8324 39.6044 45.9602 39.6044 42.3044C39.6044 38.6795 38.4732 35.7763 36.2109 33.5951C33.9796 31.4142 30.865 30.3236 26.8672 30.3236ZM96.3652 21.0152H98.1781V38.0651H96.3652C95.7127 33.3647 93.1422 31.0146 88.6477 31.0146H78.8397V47.235C78.8397 49.7235 79.4129 51.4745 80.5593 52.4882C81.7057 53.5019 83.6733 54.0088 86.462 54.0088H89.7168C95.1712 54.0088 99.0766 50.5836 101.431 43.733H103.012L101.99 57.1424H59.5471V55.5296C62.3674 54.9458 64.2423 54.1163 65.1721 53.0413C66.1021 51.9353 66.5663 49.8155 66.5663 46.6821V11.2001C66.5663 8.61957 66.0863 6.83789 65.1255 5.85484C64.1647 4.84092 62.3055 4.07296 59.5471 3.55076V1.93797H101.338V14.1952H99.7113C98.7811 10.601 97.6188 8.18958 96.2244 6.96077C94.8618 5.70109 92.6602 5.07134 89.6236 5.07134H78.8397V27.8813H88.6477C90.8791 27.8813 92.5829 27.3591 93.761 26.3145C94.9392 25.2701 95.8059 23.5035 96.3652 21.0152ZM144.802 55.5296V57.1424H118.631V55.5296C121.39 55.0074 123.249 54.2085 124.211 53.1333C125.171 52.0582 125.651 50.0921 125.651 47.235V5.07134H120.073C116.695 5.07134 114.014 5.7933 112.03 7.2372C110.079 8.68111 108.621 10.9696 107.661 14.1032H106.08L106.637 0.785834H108.359C109.567 1.55399 111.396 1.93797 113.843 1.93797H149.777C152.288 1.93797 154.117 1.55399 155.263 0.785834H156.983L157.54 14.1032H155.961C154.999 10.9696 153.528 8.68111 151.544 7.2372C149.592 5.7933 146.927 5.07134 143.549 5.07134H137.97V47.3272C137.97 50.0306 138.45 51.966 139.412 53.1333C140.371 54.2701 142.168 55.0687 144.802 55.5296ZM221.273 29.5863C221.273 38.0342 218.423 44.9771 212.721 50.4146C207.019 55.8522 199.735 58.5709 190.872 58.5709C182.039 58.5709 174.788 55.8522 169.115 50.4146C163.445 44.9771 160.608 38.0342 160.608 29.5863C160.608 21.1381 163.445 14.1799 169.115 8.71178C174.818 3.24346 182.071 0.509399 190.872 0.509399C199.735 0.509399 207.019 3.24346 212.721 8.71178C218.423 14.1799 221.273 21.1381 221.273 29.5863ZM207.933 29.9549C207.933 21.3839 206.475 14.8558 203.563 10.3706C200.68 5.88551 196.451 3.64297 190.872 3.64297C185.356 3.64297 181.157 5.88551 178.275 10.3706C175.391 14.8558 173.951 21.4146 173.951 30.0471C173.951 38.0651 175.407 44.3014 178.32 48.7558C181.234 53.2102 185.417 55.4374 190.872 55.4374C196.233 55.4374 200.418 53.2255 203.423 48.8018C206.429 44.378 207.933 38.0958 207.933 29.9549Z" fill="#000B3F"/>
</svg>
